<svg width="100" height="100" viewBox="0 0 100 100" fill="none" xmlns="http://www.w3.org/2000/svg">
<path d="M81.25 15.625H65.3125C64.5953 12.0928 62.679 8.91727 59.8883 6.63632C57.0976 4.35537 53.6042 3.10934 50 3.10934C46.3958 3.10934 42.9024 4.35537 40.1117 6.63632C37.321 8.91727 35.4047 12.0928 34.6875 15.625H18.75C17.9212 15.625 17.1263 15.9542 16.5403 16.5403C15.9542 17.1263 15.625 17.9212 15.625 18.75C15.625 19.5788 15.9542 20.3737 16.5403 20.9597C17.1263 21.5458 17.9212 21.875 18.75 21.875H34.6875C35.365 25.1712 37.0885 28.1606 39.6016 30.3984C35.2491 32.3934 31.56 35.5948 28.972 39.623C26.3839 43.6512 25.0054 48.3371 25 53.125V78.125C25 79.7826 25.6585 81.3723 26.8306 82.5444C28.0027 83.7165 29.5924 84.375 31.25 84.375H37.5C37.5 87.6902 38.817 90.8696 41.1612 93.2138C43.5054 95.558 46.6848 96.875 50 96.875C53.3152 96.875 56.4946 95.558 58.8388 93.2138C61.183 90.8696 62.5 87.6902 62.5 84.375H68.75C70.4076 84.375 71.9973 83.7165 73.1694 82.5444C74.3415 81.3723 75 79.7826 75 78.125V53.125C74.9946 48.3371 73.6161 43.6512 71.028 39.623C68.44 35.5948 64.7509 32.3934 60.3984 30.3984C62.9115 28.1606 64.635 25.1712 65.3125 21.875H81.25C82.0788 21.875 82.8737 21.5458 83.4597 20.9597C84.0458 20.3737 84.375 19.5788 84.375 18.75C84.375 17.9212 84.0458 17.1263 83.4597 16.5403C82.8737 15.9542 82.0788 15.625 81.25 15.625ZM56.25 84.375C56.25 86.0326 55.5915 87.6223 54.4194 88.7944C53.2473 89.9665 51.6576 90.625 50 90.625C48.3424 90.625 46.7527 89.9665 45.5806 88.7944C44.4085 87.6223 43.75 86.0326 43.75 84.375V65.625C43.75 63.9674 44.4085 62.3777 45.5806 61.2056C46.7527 60.0335 48.3424 59.375 50 59.375C51.6576 59.375 53.2473 60.0335 54.4194 61.2056C55.5915 62.3777 56.25 63.9674 56.25 65.625V84.375ZM68.75 53.125V78.125H62.5V65.625C62.5 62.3098 61.183 59.1304 58.8388 56.7862C56.4946 54.442 53.3152 53.125 50 53.125C46.6848 53.125 43.5054 54.442 41.1612 56.7862C38.817 59.1304 37.5 62.3098 37.5 65.625V78.125H31.25V53.125C31.25 48.1522 33.2254 43.3831 36.7417 39.8667C40.2581 36.3504 45.0272 34.375 50 34.375C54.9728 34.375 59.7419 36.3504 63.2583 39.8667C66.7746 43.3831 68.75 48.1522 68.75 53.125ZM40.625 18.75C40.625 16.8958 41.1748 15.0832 42.205 13.5415C43.2351 11.9998 44.6993 10.7982 46.4123 10.0886C48.1254 9.37906 50.0104 9.1934 51.829 9.55514C53.6475 9.91688 55.318 10.8098 56.6291 12.1209C57.9402 13.432 58.8331 15.1025 59.1949 16.921C59.5566 18.7396 59.3709 20.6246 58.6614 22.3377C57.9518 24.0507 56.7502 25.5149 55.2085 26.545C53.6668 27.5752 51.8542 28.125 50 28.125C47.5136 28.125 45.129 27.1373 43.3709 25.3791C41.6127 23.621 40.625 21.2364 40.625 18.75Z" fill="url(#paint0_linear_11_9)"/>
<defs>
<linearGradient id="paint0_linear_11_9" x1="50" y1="3.10934" x2="50" y2="96.875" gradientUnits="userSpaceOnUse">
<stop stop-color="#FACC15"/>
<stop offset="1" stop-color="white"/>
</linearGradient>
</defs>
</svg>
