<svg width="50" height="50" viewBox="0 0 50 50" fill="none" xmlns="http://www.w3.org/2000/svg">
<path d="M33.4683 5.44974C34.398 6.08206 34.7417 7.22904 34.3198 8.22898L28.1951 22.6472H39.4993C40.5539 22.6472 41.4914 23.2648 41.8507 24.1986C42.2101 25.1323 41.9054 26.1764 41.1008 26.8087L18.6018 44.4547C17.7191 45.1458 16.4613 45.1826 15.5317 44.5503C14.602 43.9179 14.2583 42.771 14.6802 41.771L20.8049 27.3528H9.50073C8.44609 27.3528 7.50864 26.7352 7.14928 25.8014C6.78992 24.8677 7.0946 23.8236 7.89925 23.1913L30.3982 5.54532C31.2809 4.85419 32.5387 4.81743 33.4683 5.44974Z" fill="url(#paint0_linear_73_62)"/>
<circle cx="25" cy="25" r="23.5" stroke="url(#paint1_linear_73_62)" stroke-width="3"/>
<defs>
<linearGradient id="paint0_linear_73_62" x1="24.5" y1="5" x2="24.5" y2="45" gradientUnits="userSpaceOnUse">
<stop stop-color="#FACC15"/>
<stop offset="1" stop-color="#CA8A04"/>
</linearGradient>
<linearGradient id="paint1_linear_73_62" x1="25" y1="0" x2="25" y2="50" gradientUnits="userSpaceOnUse">
<stop stop-color="#FACC15"/>
<stop offset="1" stop-color="#CA8A04"/>
</linearGradient>
</defs>
</svg>
